<svg width="1080" height="1080" viewBox="0 0 1080 1080" fill="none" xmlns="http://www.w3.org/2000/svg">
<rect width="1080" height="1080" rx="200" fill="black"/>
<path d="M1000 603.358C1000 611.136 999.591 628.329 987.727 646.34C963.18 683.591 916.133 684 877.268 684H691.943V395H877.268C884.632 395 891.587 395 898.951 395.409C925.133 397.047 952.544 403.187 970.135 424.064C981.181 437.572 985.681 453.127 985.681 469.911C985.681 502.249 968.09 517.805 957.044 523.945C953.771 525.992 945.18 529.266 945.18 529.266C952.544 531.722 966.044 535.816 979.545 549.734C987.727 557.921 1000 574.295 1000 603.358ZM943.134 472.776C943.134 465.408 941.498 448.215 923.906 437.163C909.587 428.157 892.814 428.157 876.859 428.157H733.263V516.986H884.223C903.042 516.986 923.088 516.576 935.361 498.974C938.225 494.881 943.134 485.875 943.134 472.776ZM957.044 599.674C957.044 594.762 957.044 582.891 948.862 571.429C934.952 551.371 911.633 550.143 889.541 550.143H733.263V650.433H889.541C910.815 650.433 932.907 648.387 947.634 629.966C951.316 625.054 957.453 615.229 957.044 599.674Z" fill="white"/>
<path d="M657.575 684H610.119L574.935 612.773H397.383L362.2 684H315.971L465.704 395H509.478L657.575 684ZM557.344 579.616L486.568 436.344L414.566 579.616H557.344Z" fill="white"/>
<path d="M356.965 429.385H238.733V684H197.823V429.385H80V395H356.965V429.385Z" fill="white"/>
</svg>
