<svg width="1080" height="1080" viewBox="0 0 1080 1080" fill="none" xmlns="http://www.w3.org/2000/svg">
<path d="M897.013 791.724C897.013 800.946 895.366 826.967 872.639 844.095C852.547 859.576 830.808 859.905 806.763 859.905H695.103V953.12H661.507V720.578H803.799C809.728 720.578 815.656 720.907 821.585 721.237C831.796 722.225 865.393 723.542 885.156 751.869C893.061 763.397 897.013 777.56 897.013 791.724ZM861.111 789.748C861.111 785.466 860.782 774.596 852.876 764.715C839.701 748.246 817.303 748.246 798.529 748.246H694.774V832.238H802.152C820.268 832.238 840.031 831.579 852.547 816.098C856.17 811.816 861.111 803.582 861.111 789.748Z" fill="black"/>
<path d="M634.494 953.12H596.286L567.96 895.808H425.009L396.682 953.12H359.462L480.015 720.578H515.259L634.494 953.12ZM553.796 869.128L496.814 753.845L438.843 869.128H553.796Z" fill="black"/>
<path d="M392.467 748.246H297.276V953.12H264.338V748.246H169.477V720.578H392.467V748.246Z" fill="black"/>
<path d="M674.936 542.524C674.936 556.029 672.96 592.261 644.633 621.576C628.494 638.374 592.921 661.76 534.621 661.76C528.692 661.76 515.187 661.431 499.047 658.795C483.237 656.49 436.136 647.926 409.127 604.448C393.317 578.756 392.328 552.406 392.328 541.866C392.328 515.186 399.245 488.506 415.714 467.755C419.008 463.473 423.29 458.532 432.513 450.957C448.323 437.782 480.273 417.36 532.644 417.36C543.184 417.36 574.805 418.348 604.778 432.182C623.882 441.075 642.328 455.568 654.515 473.025C673.619 500.693 674.936 531.325 674.936 542.524ZM641.669 539.231C641.669 519.468 636.399 505.634 633.105 498.717C608.072 445.028 541.867 445.357 528.692 445.687C518.81 446.016 476.979 448.322 449.97 475.331C445.359 479.942 436.136 490.153 430.536 506.622C426.913 517.162 425.266 529.349 425.266 540.548C425.266 549.112 426.255 574.145 442.065 595.555C445.359 599.836 450.299 605.765 460.51 613.012C474.015 622.564 496.742 633.104 535.279 633.104C541.538 633.104 557.018 633.104 574.476 628.493C607.084 619.929 630.799 598.19 638.705 565.252C639.693 560.64 641.669 551.088 641.669 539.231Z" fill="black"/>
<path d="M392.467 450.627H297.276V655.502H264.338V450.627H169.477V422.959H392.467V450.627Z" fill="black"/>
<path d="M910.188 293.654C910.188 299.913 909.858 313.747 900.306 328.239C880.544 358.213 842.665 358.542 811.374 358.542H662.165V126H811.374C817.303 126 822.902 126 828.831 126.329C849.911 127.647 871.98 132.588 886.143 149.386C895.036 160.256 898.66 172.772 898.66 186.277C898.66 212.298 884.496 224.814 875.603 229.755C872.968 231.402 866.051 234.037 866.051 234.037C871.98 236.013 882.849 239.307 893.719 250.506C900.306 257.093 910.188 270.268 910.188 293.654ZM864.404 188.582C864.404 182.653 863.087 168.819 848.923 159.926C837.395 152.68 823.89 152.68 811.045 152.68H695.432V224.155H816.973C832.125 224.155 848.264 223.826 858.146 209.662C860.452 206.369 864.404 199.122 864.404 188.582ZM875.603 290.69C875.603 286.737 875.603 277.185 869.015 267.963C857.816 251.823 839.042 250.835 821.255 250.835H695.432V331.533H821.255C838.383 331.533 856.17 329.886 868.027 315.064C870.992 311.112 875.932 303.206 875.603 290.69Z" fill="black"/>
<path d="M634.495 358.542H596.287L567.96 301.23H425.009L396.682 358.542H359.462L480.015 126H515.259L634.495 358.542ZM553.797 274.55L496.814 159.267L438.843 274.55H553.797Z" fill="black"/>
<path d="M392.467 153.668H297.276V358.542H264.338V153.668H169.477V126H392.467V153.668Z" fill="black"/>
</svg>
